<svg width="128" height="128" xmlns="http://www.w3.org/2000/svg" xmlns:xlink="http://www.w3.org/1999/xlink">
 <g>
  <title>background</title>
  <rect fill="none" id="canvas_background" height="402" width="582" y="-1" x="-1"/>
 </g>
 <g>
  <title>Layer 1</title>
  <circle fill="#f54f33" id="svg_2" r="64" cy="64" cx="64" class="st0"/>
  <defs>
   <circle r="64" id="SVGID_1_" cy="64" cx="64"/>
  </defs>
  <clipPath id="SVGID_2_">
   <use id="svg_4" xlink:href="#SVGID_1_"/>
  </clipPath>
  <polygon fill="#dd2c24" clip-path="url(#SVGID_2_)" opacity="0.77" id="svg_5" points="20.2,96.1 52,128 128,128 128,52.5 108.1,32.6   " class="st1"/>
  <path fill="#ffffff" id="svg_6" d="m104.9,96.9l-81.8,0c-2.2,0 -4,-1.8 -4,-4l0,-57.8c0,-2.2 1.8,-4 4,-4l81.9,0c2.2,0 4,1.8 4,4l0,57.9c-0.1,2.2 -1.8,3.9 -4.1,3.9z" class="st2"/>
  <path fill="#e1e3e9" id="svg_8" d="m108.9,42.1l0,-7c0,-2.2 -1.8,-4 -4,-4l-81.8,0c-2.2,0 -4,1.8 -4,4l0,7l89.8,0z" class="st3"/>
  <circle fill="#f24b45" id="svg_9" r="3" cy="36.6" cx="103.684673" class="st4"/>
  <circle fill="#ffb202" id="svg_10" r="3" cy="36.6" cx="95.600735" class="st5"/>
  <circle fill="#4cbb41" id="svg_11" r="3" cy="36.6" cx="87.845335" class="st6"/>
  <defs>
   <path id="SVGID_3_" d="m104.9,96.9l-81.8,0c-2.2,0 -4,-1.8 -4,-4l0,-57.8c0,-2.2 1.8,-4 4,-4l81.9,0c2.2,0 4,1.8 4,4l0,57.9c-0.1,2.2 -1.8,3.9 -4.1,3.9z"/>
  </defs>
  <clipPath id="SVGID_4_">
   <use id="svg_13" xlink:href="#SVGID_3_"/>
  </clipPath>
  <polygon fill="#e1e3e9" clip-path="url(#SVGID_4_)" opacity="0.8" id="svg_14" points="30.9,70.9 57.4,97.5 110,97.5 110,79.6 97.1,66.7 84.5,63.7 71.8,51.1 64.4,67.2 53.5,56.3     31.9,68.8   " class="st7"/>
  <path fill="#53899f" id="svg_16" d="m30.9,66.8l22.6,-10.5l0,5l-17.1,7.5l0,0.1l17.1,7.5l0,5l-22.6,-10.5l0,-4.1z" class="st8"/>
  <path fill="#53899f" id="svg_17" d="m57,85.2l10,-34.1l4.8,0l-10.1,34.1l-4.7,0z" class="st8"/>
  <path fill="#53899f" id="svg_18" d="m97.1,71l-22.6,10.4l0,-5l17.5,-7.5l0,-0.1l-17.5,-7.5l0,-5l22.6,10.4l0,4.3z" class="st8"/>
 </g>
</svg>